<svg xmlns="http://www.w3.org/2000/svg" viewBox="0 0 32 32" width="32" height="32">
  <g>
    <circle fill="#25d366" cx="16" cy="16" r="16"/>
    <path fill="#fff" d="M24.5 21.9c-.4-.2-2.3-1.1-2.7-1.2-.4-.2-.7-.2-1 .2-.3.4-1.1 1.2-1.3 1.4-.2.2-.5.3-.9.1-.4-.2-1.7-.6-3.2-2-1.2-1.1-2-2.5-2.2-2.9-.2-.4 0-.6.2-.8.2-.2.4-.5.6-.7.2-.2.2-.4.3-.7.1-.2 0-.5 0-.7 0-.2-.7-1.7-1-2.3-.3-.6-.5-.5-.7-.5h-.6c-.2 0-.5.1-.7.3-.2.2-1 1-1 2.5 0 1.5 1 3 1.2 3.2.2.2 2 3.2 5 4.3 1 .3 1.8.5 2.4.5.7 0 1.3-.1 1.7-.3.5-.2 1.5-1.1 1.7-2.1.2-1 .2-1.8.1-2.1z"/>
  </g>
</svg>